<?xml version="1.0" encoding="UTF-8" standalone="no"?>
<!-- Created with Inkscape (http://www.inkscape.org/) -->

<svg
   xmlns:dc="http://purl.org/dc/elements/1.1/"
   xmlns:cc="http://creativecommons.org/ns#"
   xmlns:rdf="http://www.w3.org/1999/02/22-rdf-syntax-ns#"
   xmlns:svg="http://www.w3.org/2000/svg"
   xmlns="http://www.w3.org/2000/svg"
   xmlns:sodipodi="http://sodipodi.sourceforge.net/DTD/sodipodi-0.dtd"
   xmlns:inkscape="http://www.inkscape.org/namespaces/inkscape"
   width="30.150446mm"
   height="32.439114mm"
   viewBox="0 0 30.15045 32.439113"
   version="1.1"
   id="svg14964"
   inkscape:version="0.92.4 (5da689c313, 2019-01-14)"
   sodipodi:docname="actitud-de-servicio.svg">
  <defs
     id="defs14958">
    <clipPath
       clipPathUnits="userSpaceOnUse"
       id="clipPath13796">
      <path
         d="M 0,4585 H 1144 V 0 H 0 Z"
         id="path13794"
         inkscape:connector-curvature="0" />
    </clipPath>
    <clipPath
       clipPathUnits="userSpaceOnUse"
       id="clipPath13702">
      <path
         d="M 0,4585 H 1144 V 0 H 0 Z"
         id="path13700"
         inkscape:connector-curvature="0" />
    </clipPath>
    <clipPath
       clipPathUnits="userSpaceOnUse"
       id="clipPath13718">
      <path
         d="M 0,4585 H 1144 V 0 H 0 Z"
         id="path13716"
         inkscape:connector-curvature="0" />
    </clipPath>
    <clipPath
       clipPathUnits="userSpaceOnUse"
       id="clipPath13758">
      <path
         d="M 0,4585 H 1144 V 0 H 0 Z"
         id="path13756"
         inkscape:connector-curvature="0" />
    </clipPath>
  </defs>
  <sodipodi:namedview
     id="base"
     pagecolor="#ffffff"
     bordercolor="#666666"
     borderopacity="1.0"
     inkscape:pageopacity="0.0"
     inkscape:pageshadow="2"
     inkscape:zoom="0.35"
     inkscape:cx="-812.3368"
     inkscape:cy="239.023"
     inkscape:document-units="mm"
     inkscape:current-layer="layer1"
     showgrid="false"
     fit-margin-top="0"
     fit-margin-left="0"
     fit-margin-right="0"
     fit-margin-bottom="0"
     inkscape:window-width="1920"
     inkscape:window-height="1017"
     inkscape:window-x="-8"
     inkscape:window-y="-8"
     inkscape:window-maximized="1" />
  <metadata
     id="metadata14961">
    <rdf:RDF>
      <cc:Work
         rdf:about="">
        <dc:format>image/svg+xml</dc:format>
        <dc:type
           rdf:resource="http://purl.org/dc/dcmitype/StillImage" />
        <dc:title></dc:title>
      </cc:Work>
    </rdf:RDF>
  </metadata>
  <g
     inkscape:label="Capa 1"
     inkscape:groupmode="layer"
     id="layer1"
     transform="translate(-181.2909,-179.63572)">
    <g
       transform="matrix(0.35277777,0,0,-0.35277777,-139.01294,1484.8457)"
       id="g13752">
      <g
         id="g13754"
         clip-path="url(#clipPath13758)">
        <g
           id="g13760"
           transform="translate(961.5547,3656.4414)">
          <path
             d="m 0,0 c 1.909,2.104 3.659,4.148 5.555,6.049 0.561,0.563 1.528,1.001 2.318,1.013 5.231,0.089 10.465,0.042 15.697,0.048 3.458,0.004 5.485,1.956 5.499,5.416 0.031,7.533 0.034,15.066 -0.002,22.599 -0.016,3.456 -2.032,5.434 -5.503,5.438 -11.328,0.02 -22.656,0.02 -33.984,10e-4 -3.495,-0.006 -5.455,-1.945 -5.506,-5.423 -0.044,-2.99 -0.012,-5.981 -0.012,-8.971 0.002,-4.657 -0.045,-9.316 0.028,-13.973 0.049,-3.097 2.096,-5.052 5.113,-5.086 C -9.762,7.1 -8.707,7.232 -7.698,7.068 -6.93,6.943 -6.041,6.63 -5.519,6.095 -3.643,4.173 -1.899,2.121 0,0 m 0.017,-4.17 c -2.229,2.483 -4.442,4.879 -6.562,7.354 -0.745,0.87 -1.525,1.244 -2.662,1.171 -2.327,-0.149 -4.587,0.007 -6.513,1.619 -1.774,1.484 -2.901,3.314 -2.916,5.626 -0.054,8.22 -0.102,16.442 10e-4,24.662 0.047,3.715 3.438,7.022 7.204,7.046 12.015,0.077 24.032,0.08 36.047,-0.003 3.722,-0.026 7.064,-3.31 7.131,-7.127 C 31.892,27.901 31.9,19.62 31.749,11.345 31.678,7.454 28.124,4.379 24.134,4.348 19.133,4.309 14.131,4.308 9.129,4.36 8.001,4.372 7.208,4.068 6.467,3.188 4.407,0.737 2.252,-1.633 0.017,-4.17"
             style="fill:#77c5e8;fill-opacity:1;fill-rule:nonzero;stroke:none"
             id="path13762"
             inkscape:connector-curvature="0" />
        </g>
        <g
           id="g13764"
           transform="translate(954.7529,3622.7637)">
          <path
             d="m 0,0 h -46.805 v 2.74 h 6.079 c 0,3.753 -0.003,7.301 0,10.849 0.005,3.841 1.299,7.092 4.457,9.422 0.434,0.32 1.212,0.546 1.677,0.381 1.141,-0.405 1.278,-1.668 0.262,-2.415 -2.662,-1.959 -3.573,-4.634 -3.521,-7.815 0.058,-3.385 0.013,-6.771 0.013,-10.275 h 3.208 c 0,2.091 -0.007,4.197 0.003,6.302 0.006,1.077 -0.203,2.477 1.398,2.419 1.514,-0.054 1.36,-1.433 1.367,-2.519 0.011,-2.052 0.004,-4.105 0.004,-6.236 h 12.471 c 0,1.895 -0.001,3.822 0.001,5.749 0,0.574 -0.164,1.225 0.053,1.704 0.265,0.584 0.85,1.023 1.296,1.525 0.472,-0.526 1.315,-1.028 1.35,-1.581 0.15,-2.4 0.064,-4.814 0.064,-7.353 h 3.158 v 2.471 c 0,2.931 0.002,5.862 -0.002,8.793 -0.003,2.698 -1.02,4.918 -3.182,6.562 -0.804,0.611 -1.452,1.18 -0.58,2.227 0.81,0.973 1.541,0.657 2.361,0.009 3.078,-2.438 4.335,-5.669 4.299,-9.517 -0.033,-3.493 -0.007,-6.987 -0.007,-10.625 L 0,2.817 Z"
             style="fill:#77c5e8;fill-opacity:1;fill-rule:nonzero;stroke:none"
             id="path13766"
             inkscape:connector-curvature="0" />
        </g>
        <g
           id="g13768"
           transform="translate(965.7412,3638.6484)">
          <path
             d="m 0,0 c -0.535,-5.697 3.343,-8.078 7.77,-7.297 2.778,0.49 4.601,2.842 4.646,5.967 C 12.487,3.729 11.137,6.23 7.978,6.888 7.922,6.899 7.864,6.902 7.808,6.912 2.727,7.819 -0.505,4.553 0,0 m 15.243,-0.34 c 0.754,-8.295 -7.391,-11.979 -13.372,-8.989 -3.023,1.512 -4.601,4.06 -4.693,7.473 -0.026,0.919 -0.008,1.839 -0.005,2.76 0.017,5.332 3.67,9.016 8.964,9.042 5.382,0.027 9.083,-3.663 9.105,-9.078 0.002,-0.402 0,-0.806 10e-4,-1.208"
             style="fill:#77c5e8;fill-opacity:1;fill-rule:nonzero;stroke:none"
             id="path13770"
             inkscape:connector-curvature="0" />
        </g>
        <g
           id="g13772"
           transform="translate(935.3662,3655.0479)">
          <path
             d="M 0,0 C 0.211,2.746 -0.646,5.251 -3.573,6.553 -6.934,8.045 -11.12,6.541 -12.01,3.252 -13.242,-1.302 -12.684,-5.65 -8.676,-7.107 -8.25,-7.262 -7.794,-7.369 -7.344,-7.42 -2.599,-7.955 -0.001,-5.416 0,0 m 2.806,-0.169 c 0.263,-4.27 -1.117,-7.653 -5.112,-9.37 -6.001,-2.579 -12.84,0.898 -12.963,7.697 -0.038,2.096 -0.015,4.327 0.641,6.274 1.373,4.07 5.62,6.095 10.26,5.333 C -0.338,9.102 2.611,5.692 2.803,1.459 2.828,0.885 2.806,0.31 2.806,-0.169"
             style="fill:#77c5e8;fill-opacity:1;fill-rule:nonzero;stroke:none"
             id="path13774"
             inkscape:connector-curvature="0" />
        </g>
        <g
           id="g13776"
           transform="translate(959.7891,3607.8545)">
          <path
             d="m 0,0 h -2.638 c 0,5.124 -0.22,10.161 0.089,15.165 0.166,2.685 1.974,4.822 4.166,6.482 0.858,0.65 1.531,0.588 2.2,-0.256 C 4.525,20.496 4.073,19.942 3.341,19.411 0.913,17.646 -0.066,15.231 -0.017,12.265 0.051,8.252 0,4.238 0,0"
             style="fill:#77c5e8;fill-opacity:1;fill-rule:nonzero;stroke:none"
             id="path13778"
             inkscape:connector-curvature="0" />
        </g>
        <g
           id="g13780"
           transform="translate(986.7363,3607.8633)">
          <path
             d="m 0,0 h -2.635 v 6.026 c 0,2.18 -0.012,4.361 10e-4,6.54 0.018,2.759 -0.979,5.032 -3.19,6.723 -0.718,0.549 -1.436,1.033 -0.649,2.071 0.806,1.065 1.576,0.832 2.463,0.108 2.075,-1.697 3.782,-3.817 3.93,-6.448 C 0.197,10.065 0,5.085 0,0"
             style="fill:#77c5e8;fill-opacity:1;fill-rule:nonzero;stroke:none"
             id="path13782"
             inkscape:connector-curvature="0" />
        </g>
      </g>
    </g>
  </g>
</svg>
