<?xml version="1.0" encoding="UTF-8" standalone="no"?>
<!-- Created with Inkscape (http://www.inkscape.org/) -->

<svg
   xmlns:dc="http://purl.org/dc/elements/1.1/"
   xmlns:cc="http://creativecommons.org/ns#"
   xmlns:rdf="http://www.w3.org/1999/02/22-rdf-syntax-ns#"
   xmlns:svg="http://www.w3.org/2000/svg"
   xmlns="http://www.w3.org/2000/svg"
   xmlns:sodipodi="http://sodipodi.sourceforge.net/DTD/sodipodi-0.dtd"
   xmlns:inkscape="http://www.inkscape.org/namespaces/inkscape"
   width="41.779392mm"
   height="26.025562mm"
   viewBox="0 0 41.779393 26.025562"
   version="1.1"
   id="svg14964"
   inkscape:version="0.92.4 (5da689c313, 2019-01-14)"
   sodipodi:docname="compromiso.svg">
  <defs
     id="defs14958">
    <clipPath
       clipPathUnits="userSpaceOnUse"
       id="clipPath13796">
      <path
         d="M 0,4585 H 1144 V 0 H 0 Z"
         id="path13794"
         inkscape:connector-curvature="0" />
    </clipPath>
  </defs>
  <sodipodi:namedview
     id="base"
     pagecolor="#ffffff"
     bordercolor="#666666"
     borderopacity="1.0"
     inkscape:pageopacity="0.0"
     inkscape:pageshadow="2"
     inkscape:zoom="0.35"
     inkscape:cx="-834.64779"
     inkscape:cy="513.59816"
     inkscape:document-units="mm"
     inkscape:current-layer="layer1"
     showgrid="false"
     fit-margin-top="0"
     fit-margin-left="0"
     fit-margin-right="0"
     fit-margin-bottom="0"
     inkscape:window-width="1920"
     inkscape:window-height="1017"
     inkscape:window-x="-8"
     inkscape:window-y="-8"
     inkscape:window-maximized="1" />
  <metadata
     id="metadata14961">
    <rdf:RDF>
      <cc:Work
         rdf:about="">
        <dc:format>image/svg+xml</dc:format>
        <dc:type
           rdf:resource="http://purl.org/dc/dcmitype/StillImage" />
        <dc:title></dc:title>
      </cc:Work>
    </rdf:RDF>
  </metadata>
  <g
     inkscape:label="Capa 1"
     inkscape:groupmode="layer"
     id="layer1"
     transform="translate(-187.19401,-258.69728)">
    <g
       id="g13688"
       transform="matrix(0.35277777,0,0,-0.35277777,206.32462,280.53683)">
      <path
         d="m 0,0 c -1.403,-1.423 -2.564,-2.521 -3.631,-3.703 -1.328,-1.472 -1.063,-2.859 0.404,-4.096 1.492,-1.256 2.717,-1.168 4.123,0.352 0.635,0.685 1.405,1.343 1.756,2.165 0.358,0.837 0.666,2.079 0.291,2.75 C 2.416,-1.59 1.238,-1.011 0,0 m -9.953,-4.838 c 0.967,0.578 1.743,0.849 2.244,1.379 1.331,1.408 2.588,2.894 3.792,4.415 1.126,1.423 0.934,2.771 -0.472,3.952 -1.375,1.157 -2.722,1.253 -3.969,-0.131 -1.299,-1.44 -2.652,-2.859 -3.74,-4.452 -0.492,-0.721 -0.817,-2.051 -0.475,-2.73 0.486,-0.967 1.656,-1.589 2.62,-2.433 M -20.88,17.848 c -0.891,-0.433 -1.526,-0.558 -1.876,-0.943 -1.548,-1.698 -3.132,-3.385 -4.469,-5.246 -0.946,-1.316 -0.334,-2.589 0.88,-3.563 1.235,-0.992 2.517,-1.169 3.652,0.026 1.433,1.51 2.862,3.055 4.043,4.758 0.475,0.685 0.672,2.046 0.303,2.718 -0.52,0.947 -1.684,1.54 -2.533,2.25 M -10.583,8.85 c -0.787,0.799 -1.463,1.949 -2.44,2.336 -0.782,0.308 -2.211,10e-4 -2.86,-0.582 -1.487,-1.333 -2.688,-2.99 -3.976,-4.54 -1.224,-1.474 -0.848,-2.789 0.507,-3.937 1.363,-1.154 2.729,-1.24 3.976,0.162 1.29,1.453 2.562,2.924 3.776,4.44 0.384,0.48 0.554,1.131 1.017,2.121 m 71.155,5.551 C 55.536,27.15 50.569,39.723 45.576,52.362 43.538,51.35 41.755,50.463 39.878,49.53 45.089,37.187 50.244,24.976 55.456,12.629 c 1.756,0.608 3.35,1.161 5.116,1.772 m -104.34,3.741 c 5.347,12.363 10.606,24.525 15.909,36.788 -2.593,1.145 -4.933,2.177 -7.476,3.3 -5.128,-12.533 -10.171,-24.856 -15.267,-37.309 2.347,-0.954 4.459,-1.813 6.834,-2.779 M 50.365,16.409 C 46.568,25.4 42.917,34.046 39.53,42.064 c -1.886,0.379 -3.302,0.428 -4.517,0.947 -5.951,2.543 -11.859,5.189 -17.76,7.847 -2.204,0.993 -4.404,1.178 -6.715,0.47 C 7.034,50.255 3.469,49.357 0.027,48.115 -1.374,47.61 -2.795,46.618 -3.727,45.461 c -2.296,-2.855 -4.252,-5.981 -6.47,-8.902 -1.219,-1.604 -0.632,-2.45 0.898,-3.118 2.861,-1.25 5.353,-0.482 7.538,1.523 1.966,1.803 4.129,3.024 6.865,3.279 1.168,0.109 2.364,0.628 3.406,1.213 1.96,1.102 2.436,0.844 3.292,-1.203 0.781,-1.87 1.635,-3.992 3.103,-5.244 7.776,-6.631 15.779,-12.993 23.639,-19.527 1.171,-0.972 1.993,-0.804 3.224,-0.218 2.676,1.272 4.971,3.566 8.597,3.145 M -7.581,9.124 C -2.381,8.382 -1.577,7.729 0.284,2.693 2.638,2.457 4.463,1.246 5.737,-0.719 7.135,-2.873 6.662,-5.073 5.467,-7.127 8.636,-9.048 11.516,-8.291 13.198,-5.17 9.436,-1.647 5.648,1.884 1.88,5.436 1.048,6.22 -0.056,7.083 1.116,8.311 2.228,9.475 3.175,8.613 4.058,7.784 c 4.459,-4.189 8.921,-8.376 13.395,-12.55 1.798,-1.677 3.694,-1.749 5.076,-0.238 1.462,1.599 1.165,3.026 -1.005,4.871 -4.498,3.825 -8.998,7.65 -13.488,11.485 -0.887,0.757 -1.953,1.585 -0.845,2.846 1.094,1.246 2.078,0.331 2.957,-0.436 5.253,-4.591 10.453,-9.243 15.789,-13.735 0.71,-0.597 2.264,-0.791 3.104,-0.426 0.573,0.248 0.951,1.88 0.748,2.736 -0.244,1.027 -1.058,2.037 -1.869,2.791 -3.161,2.942 -6.421,5.779 -9.64,8.659 -1.771,1.584 -3.628,3.088 -5.245,4.817 -0.509,0.542 -0.364,1.698 -0.518,2.573 0.879,-0.093 1.852,0.017 2.61,-0.334 0.814,-0.376 1.429,-1.185 2.125,-1.81 4.93,-4.425 9.83,-8.883 14.796,-13.264 2.428,-2.143 3.952,-1.98 5.551,0.366 1.172,1.721 0.884,3.289 -1.026,4.859 C 29.34,16.938 22.029,22.789 14.87,28.819 12.555,30.77 10.616,33.166 8.297,35.574 5.248,35.305 1.975,34.292 -0.867,31.697 -2.178,30.5 -4.346,29.891 -6.193,29.712 c -2.886,-0.278 -5.682,0.613 -7.345,3.204 -1.649,2.57 0.091,4.63 1.559,6.622 0.556,0.754 1.109,1.509 1.647,2.275 1.464,2.082 2.919,4.169 4.806,6.868 -7.199,0 -13.732,0.046 -20.262,-0.07 -0.66,-0.011 -1.592,-0.853 -1.906,-1.537 -1.894,-4.112 -3.647,-8.291 -5.443,-12.449 -1.53,-3.543 -3.053,-7.09 -4.369,-10.145 3.653,-2.567 7.065,-4.965 10.447,-7.343 5.528,5.515 9.884,4.684 12.55,-2.248 3.647,-0.314 5.959,-2.233 6.928,-5.765 M 33.445,1.195 c -1.22,-4.289 -2.563,-5.311 -6.719,-5.214 -2.648,-5.492 -5.975,-6.654 -10.982,-3.835 -4.773,-4.29 -6.97,-4.647 -12.385,-2.017 -3.898,-3.232 -8.07,-2.614 -10.775,2.42 -3.561,-0.856 -7.196,0.392 -8.769,5.377 -4.058,-0.056 -6.646,1.981 -7.727,5.917 -5.34,0.54 -9.219,5.424 -5.338,10.757 -2.408,1.8 -4.775,3.668 -7.247,5.382 -1.481,1.029 -2.773,0.502 -3.511,-1.222 -2.237,-5.229 -1.641,-4.961 -6.887,-2.806 -1.862,0.765 -3.715,1.556 -5.607,2.237 -1.618,0.583 -2.112,1.474 -1.426,3.138 5.343,12.963 10.656,25.939 15.944,38.924 0.66,1.622 1.574,2.047 3.184,1.294 2.8,-1.31 5.651,-2.511 8.471,-3.778 2.475,-1.113 2.55,-1.345 1.504,-3.918 -0.213,-0.521 -0.387,-1.057 -0.772,-2.117 2.748,0 5.215,0.023 7.68,-0.005 5.472,-0.06 10.959,-0.419 16.41,-0.114 3.09,0.174 6.203,1.19 9.159,2.239 4.425,1.573 8.498,1.259 12.703,-0.812 4.965,-2.445 10.107,-4.532 15.173,-6.771 0.626,-0.277 1.259,-0.538 2.314,-0.45 -0.428,1.082 -0.854,2.166 -1.284,3.248 -0.533,1.338 -0.314,2.33 1.119,2.994 2.349,1.086 4.65,2.278 6.973,3.418 2.29,1.125 2.775,0.951 3.7,-1.388 4.548,-11.501 9.089,-23.004 13.632,-34.507 0.634,-1.605 1.238,-3.222 1.903,-4.814 0.655,-1.57 0.341,-2.605 -1.398,-3.142 -2.128,-0.657 -4.256,-1.34 -6.316,-2.177 -1.792,-0.728 -2.823,-0.3 -3.529,1.502 -0.835,2.13 -2.772,2.809 -4.945,1.84 C 46.648,12.327 45.671,11.696 44.623,11.229 42.664,10.354 41.379,9.353 41.186,6.771 40.911,3.094 37.239,0.71 33.445,1.195"
         style="fill:#77c5e8;fill-opacity:1;fill-rule:nonzero;stroke:none"
         id="path13690"
         inkscape:connector-curvature="0" />
    </g>
  </g>
</svg>
