<?xml version="1.0" encoding="UTF-8" standalone="no"?>
<!-- Created with Inkscape (http://www.inkscape.org/) -->

<svg
   xmlns:dc="http://purl.org/dc/elements/1.1/"
   xmlns:cc="http://creativecommons.org/ns#"
   xmlns:rdf="http://www.w3.org/1999/02/22-rdf-syntax-ns#"
   xmlns:svg="http://www.w3.org/2000/svg"
   xmlns="http://www.w3.org/2000/svg"
   xmlns:sodipodi="http://sodipodi.sourceforge.net/DTD/sodipodi-0.dtd"
   xmlns:inkscape="http://www.inkscape.org/namespaces/inkscape"
   width="24.271112mm"
   height="34.135128mm"
   viewBox="0 0 24.271112 34.135128"
   version="1.1"
   id="svg1767"
   inkscape:version="0.92.4 (5da689c313, 2019-01-14)"
   sodipodi:docname="compromiso.svg">
  <defs
     id="defs1761" />
  <sodipodi:namedview
     id="base"
     pagecolor="#ffffff"
     bordercolor="#666666"
     borderopacity="1.0"
     inkscape:pageopacity="0.0"
     inkscape:pageshadow="2"
     inkscape:zoom="0.35"
     inkscape:cx="43.009526"
     inkscape:cy="150.22163"
     inkscape:document-units="mm"
     inkscape:current-layer="layer1"
     showgrid="false"
     inkscape:window-width="1920"
     inkscape:window-height="1017"
     inkscape:window-x="-8"
     inkscape:window-y="-8"
     inkscape:window-maximized="1" />
  <metadata
     id="metadata1764">
    <rdf:RDF>
      <cc:Work
         rdf:about="">
        <dc:format>image/svg+xml</dc:format>
        <dc:type
           rdf:resource="http://purl.org/dc/dcmitype/StillImage" />
        <dc:title></dc:title>
      </cc:Work>
    </rdf:RDF>
  </metadata>
  <g
     inkscape:label="Capa 1"
     inkscape:groupmode="layer"
     id="layer1"
     transform="translate(70.34389,-154.44434)">
    <g
       id="g124"
       transform="matrix(0.35277777,0,0,-0.35277777,-48.04269,160.55904)"
       style="fill:#77c5e8;fill-opacity:1">
      <path
         d="M 0,0 C -3.884,3.939 -7.816,7.927 -11.761,11.927 V 0 Z M 2.492,-3.083 H 1.514 c -4.731,0 -9.461,-10e-4 -14.191,0 -1.67,0 -2.145,0.469 -2.145,2.123 -0.002,4.732 -0.001,9.465 -0.001,14.197 v 1.008 H -60.091 V -76.321 H 2.492 Z m -65.708,-27.901 v 45.928 c 0,1.958 0.424,2.374 2.408,2.374 15.63,10e-4 31.259,-0.005 46.889,0.015 0.854,0 1.499,-0.25 2.097,-0.85 5.524,-5.549 11.059,-11.087 16.607,-16.612 0.562,-0.559 0.8,-1.152 0.799,-1.948 -0.015,-25.017 -0.012,-50.034 -0.012,-75.051 0,-1.832 -0.476,-2.3 -2.333,-2.3 h -64.175 c -1.795,0 -2.279,0.483 -2.28,2.271 z"
         style="fill:#77c5e8;fill-opacity:1;fill-rule:nonzero;stroke:none"
         id="path126"
         inkscape:connector-curvature="0" />
    </g>
    <g
       id="g128"
       transform="matrix(0.35277777,0,0,-0.35277777,-58.054311,167.5288)"
       style="fill:#77c5e8;fill-opacity:1">
      <path
         d="m 0,0 c -7.59,0.01 -13.657,-6.021 -13.665,-13.584 -0.007,-7.421 6.183,-13.594 13.635,-13.599 7.373,-0.004 13.547,6.161 13.586,13.567 C 13.596,-6.124 7.508,-0.009 0,0 m -16.648,-13.576 c -0.014,9.198 7.361,16.592 16.558,16.6 9.181,0.008 16.606,-7.362 16.657,-16.535 0.051,-9.129 -7.477,-16.684 -16.633,-16.694 -9.129,-0.009 -16.568,7.451 -16.582,16.629"
         style="fill:#77c5e8;fill-opacity:1;fill-rule:nonzero;stroke:none"
         id="path130"
         inkscape:connector-curvature="0" />
    </g>
    <g
       id="g132"
       transform="matrix(0.35277777,0,0,-0.35277777,-58.09548,163.77814)"
       style="fill:#77c5e8;fill-opacity:1">
      <path
         d="m 0,0 c 6.958,0 13.917,0.001 20.875,-0.001 1.068,0 1.69,-0.436 1.814,-1.252 0.136,-0.885 -0.392,-1.621 -1.288,-1.759 -0.293,-0.045 -0.596,-0.031 -0.894,-0.031 -13.645,-10e-4 -27.289,-10e-4 -40.934,-10e-4 -1.446,0 -2.162,0.497 -2.175,1.505 C -22.615,-0.528 -21.884,0 -20.467,0 -13.645,0 -6.822,0 0,0"
         style="fill:#77c5e8;fill-opacity:1;fill-rule:nonzero;stroke:none"
         id="path134"
         inkscape:connector-curvature="0" />
    </g>
    <g
       id="g136"
       transform="matrix(0.35277777,0,0,-0.35277777,-58.070681,179.77766)"
       style="fill:#77c5e8;fill-opacity:1">
      <path
         d="m 0,0 c 6.957,0 13.915,0.001 20.872,-0.002 1.112,0 1.747,-0.54 1.764,-1.472 0.015,-0.796 -0.5,-1.41 -1.296,-1.514 -0.294,-0.038 -0.596,-0.029 -0.895,-0.029 -13.642,-10e-4 -27.285,-10e-4 -40.928,10e-4 -0.299,0 -0.601,-0.009 -0.895,0.032 -0.783,0.108 -1.317,0.755 -1.291,1.528 0.025,0.764 0.608,1.378 1.39,1.447 C -21.037,0.013 -20.791,0 -20.546,0 -13.697,0 -6.849,0 0,0"
         style="fill:#77c5e8;fill-opacity:1;fill-rule:nonzero;stroke:none"
         id="path138"
         inkscape:connector-curvature="0" />
    </g>
    <g
       id="g140"
       transform="matrix(0.35277777,0,0,-0.35277777,-54.289502,166.47046)"
       style="fill:#77c5e8;fill-opacity:1">
      <path
         d="m 0,0 c 0.185,0.018 0.364,0.05 0.543,0.05 3.15,0.003 6.299,0.009 9.448,-0.001 1.141,-0.004 1.738,-0.39 1.887,-1.167 C 12.062,-2.072 11.452,-2.921 10.41,-2.947 8.186,-3.003 5.958,-2.973 3.732,-2.962 3.563,-2.961 3.362,-2.875 3.229,-2.764 2.157,-1.861 1.098,-0.943 0,0"
         style="fill:#77c5e8;fill-opacity:1;fill-rule:nonzero;stroke:none"
         id="path142"
         inkscape:connector-curvature="0" />
    </g>
    <g
       id="g144"
       transform="matrix(0.35277777,0,0,-0.35277777,-61.867838,166.47477)"
       style="fill:#77c5e8;fill-opacity:1">
      <path
         d="m 0,0 c -1.094,-0.939 -2.112,-1.832 -3.156,-2.693 -0.186,-0.154 -0.476,-0.253 -0.719,-0.255 -2.093,-0.019 -4.186,-0.025 -6.279,-0.005 -1.069,0.01 -1.741,0.638 -1.733,1.542 0.009,0.892 0.603,1.455 1.7,1.463 3.289,0.026 6.577,0.01 9.866,0.008 C -0.22,0.06 -0.119,0.023 0,0"
         style="fill:#77c5e8;fill-opacity:1;fill-rule:nonzero;stroke:none"
         id="path146"
         inkscape:connector-curvature="0" />
    </g>
    <g
       id="g148"
       transform="matrix(0.35277777,0,0,-0.35277777,-54.288478,178.15503)"
       style="fill:#77c5e8;fill-opacity:1">
      <path
         d="M 0,0 C 1.077,0.929 2.096,1.82 3.133,2.69 3.306,2.834 3.555,2.968 3.769,2.97 5.966,2.987 8.164,2.991 10.361,2.964 11.105,2.955 11.665,2.587 11.852,1.823 12.036,1.073 11.777,0.48 11.094,0.114 10.89,0.005 10.634,-0.056 10.402,-0.057 7.011,-0.067 3.62,-0.064 0.229,-0.062 0.158,-0.062 0.086,-0.024 0,0"
         style="fill:#77c5e8;fill-opacity:1;fill-rule:nonzero;stroke:none"
         id="path150"
         inkscape:connector-curvature="0" />
    </g>
    <g
       id="g152"
       transform="matrix(0.35277777,0,0,-0.35277777,-61.83083,178.17898)"
       style="fill:#77c5e8;fill-opacity:1">
      <path
         d="m 0,0 h -1.546 c -2.873,0 -5.747,0.04 -8.619,-0.02 -1.096,-0.023 -1.836,0.693 -1.822,1.509 0.017,0.968 0.627,1.543 1.787,1.555 2.086,0.023 4.174,0.016 6.261,-0.004 0.243,-0.003 0.531,-0.117 0.72,-0.273 C -2.18,1.901 -1.165,1.007 0,0"
         style="fill:#77c5e8;fill-opacity:1;fill-rule:nonzero;stroke:none"
         id="path154"
         inkscape:connector-curvature="0" />
    </g>
    <g
       id="g156"
       transform="matrix(0.35277777,0,0,-0.35277777,-64.23875,175.51075)"
       style="fill:#77c5e8;fill-opacity:1">
      <path
         d="M 0,0 C -1.289,0 -2.454,-0.025 -3.618,0.008 -4.496,0.033 -5.09,0.604 -5.15,1.387 -5.214,2.231 -4.708,2.888 -3.785,2.993 -3.035,3.078 -2.27,3.048 -1.513,3.03 -1.374,3.026 -1.172,2.865 -1.112,2.728 -0.74,1.867 -0.399,0.991 0,0"
         style="fill:#77c5e8;fill-opacity:1;fill-rule:nonzero;stroke:none"
         id="path158"
         inkscape:connector-curvature="0" />
    </g>
    <g
       id="g160"
       transform="matrix(0.35277777,0,0,-0.35277777,-51.904125,175.50884)"
       style="fill:#77c5e8;fill-opacity:1">
      <path
         d="M 0,0 C 0.396,0.993 0.731,1.867 1.101,2.727 1.16,2.864 1.368,3.023 1.509,3.024 2.291,3.035 3.081,3.06 3.854,2.964 4.702,2.859 5.164,2.253 5.144,1.466 5.124,0.674 4.553,0.046 3.693,0.012 2.507,-0.036 1.318,0 0,0"
         style="fill:#77c5e8;fill-opacity:1;fill-rule:nonzero;stroke:none"
         id="path162"
         inkscape:connector-curvature="0" />
    </g>
    <g
       id="g164"
       transform="matrix(0.35277777,0,0,-0.35277777,-51.903418,169.12441)"
       style="fill:#77c5e8;fill-opacity:1">
      <path
         d="M 0,0 C 1.333,0 2.553,0.03 3.771,-0.011 4.578,-0.038 5.129,-0.665 5.144,-1.443 5.159,-2.223 4.63,-2.877 3.836,-2.943 3.081,-3.006 2.316,-2.992 1.557,-2.966 1.389,-2.961 1.143,-2.802 1.077,-2.651 0.708,-1.813 0.382,-0.956 0,0"
         style="fill:#77c5e8;fill-opacity:1;fill-rule:nonzero;stroke:none"
         id="path166"
         inkscape:connector-curvature="0" />
    </g>
    <g
       id="g168"
       transform="matrix(0.35277777,0,0,-0.35277777,-64.244291,169.12335)"
       style="fill:#77c5e8;fill-opacity:1">
      <path
         d="m 0,0 c -0.387,-0.958 -0.725,-1.837 -1.108,-2.696 -0.063,-0.142 -0.326,-0.269 -0.501,-0.276 -0.705,-0.027 -1.414,-0.035 -2.118,0.01 -0.854,0.055 -1.43,0.685 -1.426,1.482 0.004,0.806 0.582,1.445 1.43,1.471 C -2.51,0.027 -1.294,0 0,0"
         style="fill:#77c5e8;fill-opacity:1;fill-rule:nonzero;stroke:none"
         id="path170"
         inkscape:connector-curvature="0" />
    </g>
    <g
       id="g172"
       transform="matrix(0.35277777,0,0,-0.35277777,-51.147768,172.8477)"
       style="fill:#77c5e8;fill-opacity:1">
      <path
         d="M 0,0 V 3.007 C 0.999,2.98 2.053,3.346 2.764,2.32 3.14,1.777 3.116,1.181 2.718,0.651 1.992,-0.317 0.967,0.108 0,0"
         style="fill:#77c5e8;fill-opacity:1;fill-rule:nonzero;stroke:none"
         id="path174"
         inkscape:connector-curvature="0" />
    </g>
    <g
       id="g176"
       transform="matrix(0.35277777,0,0,-0.35277777,-65.006854,171.78746)"
       style="fill:#77c5e8;fill-opacity:1">
      <path
         d="M 0,0 V -2.992 C -0.942,-2.911 -2.009,-3.347 -2.658,-2.354 -2.915,-1.96 -2.979,-1.2 -2.77,-0.791 -2.18,0.366 -1.033,-0.016 0,0"
         style="fill:#77c5e8;fill-opacity:1;fill-rule:nonzero;stroke:none"
         id="path178"
         inkscape:connector-curvature="0" />
    </g>
    <g
       id="g180"
       transform="matrix(0.35277777,0,0,-0.35277777,-59.345372,173.44506)"
       style="fill:#77c5e8;fill-opacity:1">
      <path
         d="M 0,0 C 2.754,2.592 5.442,5.123 8.13,7.652 8.308,7.82 8.48,7.996 8.677,8.139 9.394,8.66 10.195,8.608 10.736,8.02 11.3,7.405 11.303,6.54 10.659,5.903 9.56,4.814 8.419,3.767 7.294,2.705 5.319,0.841 3.346,-1.024 1.366,-2.882 0.317,-3.865 -0.317,-3.86 -1.364,-2.88 c -1.13,1.058 -2.261,2.114 -3.382,3.182 -0.828,0.789 -0.937,1.697 -0.307,2.355 0.627,0.656 1.546,0.606 2.387,-0.161 C -1.784,1.692 -0.923,0.866 0,0"
         style="fill:#77c5e8;fill-opacity:1;fill-rule:nonzero;stroke:none"
         id="path182"
         inkscape:connector-curvature="0" />
    </g>
  </g>
</svg>
