<?xml version="1.0" encoding="UTF-8" standalone="no"?>
<!-- Created with Inkscape (http://www.inkscape.org/) -->

<svg
   xmlns:dc="http://purl.org/dc/elements/1.1/"
   xmlns:cc="http://creativecommons.org/ns#"
   xmlns:rdf="http://www.w3.org/1999/02/22-rdf-syntax-ns#"
   xmlns:svg="http://www.w3.org/2000/svg"
   xmlns="http://www.w3.org/2000/svg"
   xmlns:sodipodi="http://sodipodi.sourceforge.net/DTD/sodipodi-0.dtd"
   xmlns:inkscape="http://www.inkscape.org/namespaces/inkscape"
   width="29.324837mm"
   height="29.187796mm"
   viewBox="0 0 29.324841 29.187795"
   version="1.1"
   id="svg14964"
   inkscape:version="0.92.4 (5da689c313, 2019-01-14)"
   sodipodi:docname="eficiencia.svg">
  <defs
     id="defs14958">
    <clipPath
       clipPathUnits="userSpaceOnUse"
       id="clipPath13796">
      <path
         d="M 0,4585 H 1144 V 0 H 0 Z"
         id="path13794"
         inkscape:connector-curvature="0" />
    </clipPath>
    <clipPath
       clipPathUnits="userSpaceOnUse"
       id="clipPath13702">
      <path
         d="M 0,4585 H 1144 V 0 H 0 Z"
         id="path13700"
         inkscape:connector-curvature="0" />
    </clipPath>
    <clipPath
       clipPathUnits="userSpaceOnUse"
       id="clipPath13718">
      <path
         d="M 0,4585 H 1144 V 0 H 0 Z"
         id="path13716"
         inkscape:connector-curvature="0" />
    </clipPath>
  </defs>
  <sodipodi:namedview
     id="base"
     pagecolor="#ffffff"
     bordercolor="#666666"
     borderopacity="1.0"
     inkscape:pageopacity="0.0"
     inkscape:pageshadow="2"
     inkscape:zoom="0.35"
     inkscape:cx="-1295.0283"
     inkscape:cy="334.86373"
     inkscape:document-units="mm"
     inkscape:current-layer="layer1"
     showgrid="false"
     fit-margin-top="0"
     fit-margin-left="0"
     fit-margin-right="0"
     fit-margin-bottom="0"
     inkscape:window-width="1920"
     inkscape:window-height="1017"
     inkscape:window-x="-8"
     inkscape:window-y="-8"
     inkscape:window-maximized="1" />
  <metadata
     id="metadata14961">
    <rdf:RDF>
      <cc:Work
         rdf:about="">
        <dc:format>image/svg+xml</dc:format>
        <dc:type
           rdf:resource="http://purl.org/dc/dcmitype/StillImage" />
        <dc:title></dc:title>
      </cc:Work>
    </rdf:RDF>
  </metadata>
  <g
     inkscape:label="Capa 1"
     inkscape:groupmode="layer"
     id="layer1"
     transform="translate(-309.00302,-208.2449)">
    <g
       transform="matrix(0.35277777,0,0,-0.35277777,46.882824,1511.8292)"
       id="g13712">
      <g
         id="g13714"
         clip-path="url(#clipPath13718)">
        <g
           id="g13720"
           transform="translate(743.4639,3653.8955)">
          <path
             d="m 0,0 c 0.024,18.066 11.769,34.185 29.044,39.406 3.764,1.138 7.818,1.349 11.755,1.867 1.595,0.21 2.622,-0.662 2.784,-1.979 0.163,-1.33 -0.788,-2.325 -2.47,-2.559 C 37.984,36.302 34.774,36.184 31.74,35.391 22.831,33.06 15.838,27.905 10.704,20.25 5.837,12.993 3.999,4.94 4.78,-3.676 c 0.689,-7.593 3.676,-14.312 8.614,-20.118 5.197,-6.108 11.708,-10.251 19.551,-11.914 13.596,-2.883 25.408,0.6 35.109,10.666 6.541,6.788 9.637,15.043 10.025,24.39 0.023,0.549 0.061,1.153 0.297,1.63 0.506,1.018 1.398,1.513 2.541,1.206 1.267,-0.342 1.858,-1.326 1.75,-2.553 -0.252,-2.847 -0.333,-5.754 -1.005,-8.51 -3.281,-13.455 -11.177,-23.27 -23.861,-28.945 -9.582,-4.287 -19.509,-4.78 -29.455,-1.343 C 15.343,-34.673 6.457,-25.841 2.096,-12.794 0.737,-8.729 0.373,-4.332 -0.446,-0.087 -0.298,-0.059 -0.149,-0.029 0,0"
             style="fill:#77c5e8;fill-opacity:1;fill-rule:nonzero;stroke:none"
             id="path13722"
             inkscape:connector-curvature="0" />
        </g>
        <g
           id="g13724"
           transform="translate(786.0264,3673.9834)">
          <path
             d="m 0,0 v -15.208 c 2.368,-0.939 3.849,-2.562 3.652,-5.309 -0.025,-0.353 -0.008,-0.788 -0.202,-1.037 -1.185,-1.531 -0.375,-2.749 0.426,-4.103 2.421,-4.086 4.745,-8.229 7.11,-12.348 0.199,-0.344 0.423,-0.671 0.797,-1.261 0.315,1.162 0.557,2.066 0.805,2.97 0.222,0.809 0.656,1.59 1.562,1.169 0.409,-0.189 0.746,-1.171 0.644,-1.703 -0.345,-1.801 -0.914,-3.557 -1.367,-5.338 -0.283,-1.113 -0.921,-1.512 -2.039,-1.199 -1.82,0.51 -3.647,0.989 -5.471,1.477 -0.798,0.214 -1.415,0.719 -1.007,1.514 0.207,0.402 1.064,0.692 1.6,0.655 0.937,-0.064 1.855,-0.422 3.227,-0.768 -3.134,5.472 -6.056,10.576 -8.991,15.7 -0.611,-0.068 -1.159,-0.164 -1.71,-0.188 -2.453,-0.101 -4.383,1.294 -5.038,3.621 -0.624,2.211 0.264,4.535 2.408,5.561 1.05,0.502 1.239,1.111 1.23,2.111 -0.034,4.091 -0.013,8.182 -0.018,12.273 0,0.447 -0.044,0.893 -0.084,1.671 -0.915,-0.881 -1.562,-1.668 -2.372,-2.218 -0.437,-0.298 -1.149,-0.19 -1.738,-0.267 0.051,0.631 -0.139,1.469 0.195,1.855 1.27,1.464 2.702,2.788 4.085,4.153 0.715,0.706 1.442,0.668 2.144,-0.034 C 1.222,2.375 2.647,1.047 3.93,-0.408 4.249,-0.771 4.36,-1.715 4.113,-2.097 3.606,-2.876 2.864,-2.538 2.311,-1.953 1.644,-1.247 1.005,-0.516 0.354,0.205 Z"
             style="fill:#77c5e8;fill-opacity:1;fill-rule:nonzero;stroke:none"
             id="path13726"
             inkscape:connector-curvature="0" />
        </g>
        <path
           d="m 785.826,3682.327 h -2.127 v 4.4 h 2.127 z"
           style="fill:#77c5e8;fill-opacity:1;fill-rule:nonzero;stroke:none"
           id="path13728"
           inkscape:connector-curvature="0" />
        <path
           d="m 756.375,3652.829 h -4.461 v 2.124 h 4.461 z"
           style="fill:#77c5e8;fill-opacity:1;fill-rule:nonzero;stroke:none"
           id="path13730"
           inkscape:connector-curvature="0" />
        <path
           d="m 817.691,3652.822 h -4.437 v 2.128 h 4.437 z"
           style="fill:#77c5e8;fill-opacity:1;fill-rule:nonzero;stroke:none"
           id="path13732"
           inkscape:connector-curvature="0" />
        <path
           d="m 785.811,3620.968 h -2.076 v 4.47 h 2.076 z"
           style="fill:#77c5e8;fill-opacity:1;fill-rule:nonzero;stroke:none"
           id="path13734"
           inkscape:connector-curvature="0" />
        <g
           id="g13736"
           transform="translate(804.2002,3633.2627)">
          <path
             d="M 0,0 C 0.385,0.379 0.85,0.838 1.232,1.217 2.337,0.086 3.356,-0.96 4.459,-2.089 4.147,-2.346 3.607,-2.791 3.129,-3.186 2.203,-2.243 1.184,-1.205 0,0"
             style="fill:#77c5e8;fill-opacity:1;fill-rule:nonzero;stroke:none"
             id="path13738"
             inkscape:connector-curvature="0" />
        </g>
        <g
           id="g13740"
           transform="translate(760.9678,3676.748)">
          <path
             d="M 0,0 C 0.258,0.254 0.723,0.711 1.259,1.238 2.326,0.104 3.327,-0.96 4.448,-2.153 4.011,-2.492 3.496,-2.891 2.893,-3.357 2.057,-2.388 1.108,-1.286 0,0"
             style="fill:#77c5e8;fill-opacity:1;fill-rule:nonzero;stroke:none"
             id="path13742"
             inkscape:connector-curvature="0" />
        </g>
        <g
           id="g13744"
           transform="translate(762.2178,3629.7656)">
          <path
             d="M 0,0 C -0.511,0.603 -0.933,1.101 -1.363,1.607 -0.334,2.588 0.742,3.614 1.812,4.634 2.25,4.262 2.78,3.813 3.328,3.348 2.186,2.198 1.191,1.199 0,0"
             style="fill:#77c5e8;fill-opacity:1;fill-rule:nonzero;stroke:none"
             id="path13746"
             inkscape:connector-curvature="0" />
        </g>
      </g>
    </g>
  </g>
</svg>
