<?xml version="1.0" encoding="UTF-8" standalone="no"?>
<!-- Created with Inkscape (http://www.inkscape.org/) -->

<svg
   xmlns:dc="http://purl.org/dc/elements/1.1/"
   xmlns:cc="http://creativecommons.org/ns#"
   xmlns:rdf="http://www.w3.org/1999/02/22-rdf-syntax-ns#"
   xmlns:svg="http://www.w3.org/2000/svg"
   xmlns="http://www.w3.org/2000/svg"
   xmlns:sodipodi="http://sodipodi.sourceforge.net/DTD/sodipodi-0.dtd"
   xmlns:inkscape="http://www.inkscape.org/namespaces/inkscape"
   width="35.892117mm"
   height="32.574928mm"
   viewBox="0 0 35.892117 32.574928"
   version="1.1"
   id="svg14964"
   inkscape:version="0.92.4 (5da689c313, 2019-01-14)"
   sodipodi:docname="honestidad.svg">
  <defs
     id="defs14958">
    <clipPath
       clipPathUnits="userSpaceOnUse"
       id="clipPath13796">
      <path
         d="M 0,4585 H 1144 V 0 H 0 Z"
         id="path13794"
         inkscape:connector-curvature="0" />
    </clipPath>
  </defs>
  <sodipodi:namedview
     id="base"
     pagecolor="#ffffff"
     bordercolor="#666666"
     borderopacity="1.0"
     inkscape:pageopacity="0.0"
     inkscape:pageshadow="2"
     inkscape:zoom="0.35"
     inkscape:cx="-493.60095"
     inkscape:cy="90.130252"
     inkscape:document-units="mm"
     inkscape:current-layer="layer1"
     showgrid="false"
     fit-margin-top="0"
     fit-margin-left="0"
     fit-margin-right="0"
     fit-margin-bottom="0"
     inkscape:window-width="1920"
     inkscape:window-height="1017"
     inkscape:window-x="-8"
     inkscape:window-y="-8"
     inkscape:window-maximized="1" />
  <metadata
     id="metadata14961">
    <rdf:RDF>
      <cc:Work
         rdf:about="">
        <dc:format>image/svg+xml</dc:format>
        <dc:type
           rdf:resource="http://purl.org/dc/dcmitype/StillImage" />
        <dc:title></dc:title>
      </cc:Work>
    </rdf:RDF>
  </metadata>
  <g
     inkscape:label="Capa 1"
     inkscape:groupmode="layer"
     id="layer1"
     transform="translate(-96.958704,-140.10537)">
    <g
       transform="matrix(0.35277777,0,0,-0.35277777,43.835312,1445.3833)"
       id="g13790">
      <g
         id="g13792"
         clip-path="url(#clipPath13796)">
        <g
           id="g13798"
           transform="translate(202.915,3688.1201)">
          <path
             d="M 0,0 C -0.047,0.691 -0.084,1.24 -0.122,1.796 H -2.687 V 0 Z M 2.18,-3.076 C 2.176,-2.984 2.172,-2.893 2.168,-2.8 h -7.194 c 0.005,-0.093 0.008,-0.184 0.013,-0.276 z M -1.129,4.41 C 0.087,4.486 0.909,5.364 1.078,6.781 1.236,8.115 -0.041,9.426 -1.405,9.362 -2.868,9.294 -3.773,8.512 -3.859,6.989 -3.942,5.524 -2.874,4.421 -1.129,4.41 m -0.836,-34.16 c 0.346,0.014 0.692,0.028 1.038,0.043 0.735,2.95 2.216,5.69 2.036,8.898 -0.245,4.377 -0.524,8.754 -0.646,13.136 -0.04,1.433 -0.347,1.979 -1.906,2.01 -1.681,0.033 -1.859,-0.793 -1.902,-2.083 -0.164,-4.89 -0.613,-9.786 -0.466,-14.665 0.075,-2.463 1.197,-4.894 1.846,-7.339 m 48.383,-32.34 c -4.055,10.37 -8.048,20.579 -12.041,30.788 -0.11,-0.043 -0.222,-0.086 -0.333,-0.13 V -62.09 Z m -68.005,0.032 c -4.091,10.459 -8.107,20.731 -12.123,31.002 -0.114,-0.039 -0.228,-0.077 -0.342,-0.115 v -30.887 z m -15.176,-0.018 v 31.19 c -0.092,0.025 -0.185,0.049 -0.277,0.074 -4.051,-10.368 -8.102,-20.735 -12.215,-31.264 z m 68.01,31.057 c -0.117,0.025 -0.233,0.049 -0.35,0.074 -4.036,-10.34 -8.073,-20.681 -12.131,-31.076 H 31.247 Z M 18.401,-64.838 c -0.083,-6.709 6.509,-12.906 13.736,-13.02 7.837,-0.124 14.536,5.813 14.632,13.02 z m -68.004,-0.004 c -0.115,-6.775 6.7,-13.002 14.14,-13.03 7.518,-0.027 14.283,6.143 14.232,13.03 z m 80.245,40.383 h -8.9 c -5.544,0 -11.088,-0.05 -16.631,0.034 -1.411,0.022 -2.114,-0.445 -2.391,-1.784 -0.231,-1.117 -0.449,-2.257 -0.869,-3.309 -0.585,-1.462 -1.484,-2.762 -3.294,-2.748 -1.714,0.014 -2.537,1.257 -3.178,2.64 -0.132,0.286 -0.244,0.586 -0.329,0.891 -1.193,4.276 -1.192,4.276 -5.561,4.276 h -20.646 -2.379 c 1.417,-3.652 2.693,-6.957 3.981,-10.258 3.42,-8.769 6.801,-17.554 10.307,-26.289 0.724,-1.803 0.864,-3.509 0.574,-5.379 -1.278,-8.237 -9.118,-14.511 -17.628,-14.049 -8.637,0.469 -15.793,7.58 -16.025,15.995 -0.025,0.917 0.186,1.897 0.52,2.758 4.646,11.978 9.34,23.937 13.99,35.912 0.308,0.794 0.413,1.684 0.507,2.541 0.162,1.478 1.261,2.183 2.696,1.702 0.587,-0.198 1.208,-0.414 1.815,-0.416 8.411,-0.027 16.822,-0.019 25.234,-0.015 0.304,0.001 0.608,0.041 1.023,0.071 0.269,5.231 0.555,10.364 0.754,15.499 0.016,0.404 -0.516,0.89 -0.886,1.237 -1.367,1.279 -1.403,3.404 -0.035,4.537 1.591,1.318 1.934,3.095 0.919,5.046 -1.015,1.953 -0.904,3.81 0.448,5.538 1.308,1.671 3.068,2.213 5.111,1.752 C 2.871,11.022 4.476,7.53 3.061,4.635 1.863,2.184 2.057,1.03 3.961,-0.725 5.246,-1.908 5.174,-3.837 3.896,-5.134 3.463,-5.572 2.964,-6.238 2.982,-6.785 c 0.162,-4.957 0.431,-9.91 0.678,-15.071 0.591,-0.035 1.198,-0.1 1.804,-0.1 8.029,-0.007 16.058,-0.016 24.087,0.014 0.73,0.003 1.485,0.189 2.185,0.422 1.435,0.48 2.5,-0.182 2.725,-1.662 0.168,-1.107 0.376,-2.239 0.778,-3.277 4.39,-11.327 8.749,-22.666 13.295,-33.931 1.103,-2.731 1.116,-5.292 0.325,-7.978 -2.193,-7.445 -9.494,-12.522 -17.294,-12.054 -7.891,0.474 -14.585,6.432 -15.722,14.221 -0.227,1.558 -0.049,3.351 0.511,4.82 4.46,11.708 9.058,23.363 13.61,35.035 0.204,0.525 0.381,1.059 0.678,1.887"
             style="fill:#77c5e8;fill-opacity:1;fill-rule:nonzero;stroke:none"
             id="path13800"
             inkscape:connector-curvature="0" />
        </g>
        <g
           id="g13802"
           transform="translate(201.7861,3692.5303)">
          <path
             d="m 0,0 c -1.745,0.011 -2.813,1.114 -2.73,2.579 0.086,1.523 0.991,2.305 2.454,2.373 1.364,0.064 2.641,-1.247 2.483,-2.581"
             style="fill:#77c5e8;fill-opacity:1;fill-rule:nonzero;stroke:none"
             id="path13804"
             inkscape:connector-curvature="0" />
        </g>
      </g>
    </g>
  </g>
</svg>
