<?xml version="1.0" encoding="UTF-8" standalone="no"?>
<!-- Created with Inkscape (http://www.inkscape.org/) -->

<svg
   xmlns:dc="http://purl.org/dc/elements/1.1/"
   xmlns:cc="http://creativecommons.org/ns#"
   xmlns:rdf="http://www.w3.org/1999/02/22-rdf-syntax-ns#"
   xmlns:svg="http://www.w3.org/2000/svg"
   xmlns="http://www.w3.org/2000/svg"
   xmlns:sodipodi="http://sodipodi.sourceforge.net/DTD/sodipodi-0.dtd"
   xmlns:inkscape="http://www.inkscape.org/namespaces/inkscape"
   version="1.1"
   id="svg4518"
   xml:space="preserve"
   width="831.99963"
   height="140.38435"
   viewBox="0 0 831.99964 140.38435"
   sodipodi:docname="logo-notaria-69.svg"
   inkscape:version="0.92.4 (5da689c313, 2019-01-14)"><metadata
     id="metadata4524"><rdf:RDF><cc:Work
         rdf:about=""><dc:format>image/svg+xml</dc:format><dc:type
           rdf:resource="http://purl.org/dc/dcmitype/StillImage" /><dc:title></dc:title></cc:Work></rdf:RDF></metadata><defs
     id="defs4522"><clipPath
       clipPathUnits="userSpaceOnUse"
       id="clipPath4534"><path
         d="M 0,612 H 792 V 0 H 0 Z"
         id="path4532"
         inkscape:connector-curvature="0" /></clipPath></defs><sodipodi:namedview
     pagecolor="#ffffff"
     bordercolor="#666666"
     borderopacity="1"
     objecttolerance="10"
     gridtolerance="10"
     guidetolerance="10"
     inkscape:pageopacity="0"
     inkscape:pageshadow="2"
     inkscape:window-width="1920"
     inkscape:window-height="1017"
     id="namedview4520"
     showgrid="false"
     fit-margin-top="0"
     fit-margin-left="0"
     fit-margin-right="0"
     fit-margin-bottom="0"
     inkscape:zoom="1.0416667"
     inkscape:cx="434.06252"
     inkscape:cy="46.523739"
     inkscape:window-x="-8"
     inkscape:window-y="-8"
     inkscape:window-maximized="1"
     inkscape:current-layer="g4526" /><g
     id="g4526"
     inkscape:groupmode="layer"
     inkscape:label="Logo-Notaria 69"
     transform="matrix(1.3333333,0,0,-1.3333333,-93.937482,501.86061)"><g
       clip-path="url(#clipPath4534)"
       id="g4530"
       style="fill:#f9f9f9"><g
         transform="translate(571.9375,309.7812)"
         id="g4536"
         style="fill:#f9f9f9"><path
           inkscape:connector-curvature="0"
           id="path4538"
           style="fill:#f9f9f9;fill-opacity:1;fill-rule:nonzero;stroke:none"
           d="m 0,0 c -0.832,-1.786 -6.571,-14.479 -1.985,-23.04 0.546,-1.02 1.72,-3.214 4.16,-4.529 3.834,-2.068 8.012,-0.466 9.739,0.197 4.272,1.638 6.634,4.747 7.565,6.006 2.337,3.161 3.072,6.197 3.688,8.861 0.796,3.446 2.1,9.087 -0.379,14.868 -0.83,1.938 -2.392,5.581 -5.957,6.893 C 13.743,10.392 10.852,9.152 8.894,8.312 3.927,6.181 1.189,2.101 0,0 m 1.339,16.314 c 0.545,-0.452 1.848,0.979 5.573,2.707 2.15,0.996 5.71,2.587 10.276,2.842 1.555,0.087 5.504,0.262 9.856,-1.777 1.227,-0.574 3.8,-1.8 6.051,-4.529 0.351,-0.425 1.736,-2.147 2.837,-5.021 C 36.484,9.093 37.644,5.591 37.278,-0.042 36.485,-12.286 29.589,-22.21 29.589,-22.21 21.732,-33.186 12.179,-38.674 0.93,-38.674 c -3.968,0 -7.415,0.908 -10.343,2.724 -2.689,1.668 -4.26,3.669 -4.953,4.565 -4.816,6.231 -5.427,15.214 -5.207,21.539 0.506,14.533 5.768,25.394 9.172,32.296 7.17,14.539 15.369,22.767 17.892,25.203 0,0 11.511,11.11 23.43,12.705 4.528,0.606 6.651,-0.744 7.47,-1.379 0.39,-0.303 2.564,-1.989 2.734,-4.937 0.152,-2.641 -1.412,-4.46 -1.75,-4.836 -3.9,-0.04 -9.067,-0.693 -14.423,-3.254 C 17.478,42.378 13.508,36.938 8.517,30.098 4.464,24.545 0.21,17.252 1.339,16.314" /></g><g
         transform="translate(673.7363,332.4727)"
         id="g4540"
         style="fill:#f9f9f9"><path
           inkscape:connector-curvature="0"
           id="path4542"
           style="fill:#f9f9f9;fill-opacity:1;fill-rule:nonzero;stroke:none"
           d="m 0,0 c 1.05,1.634 5.164,8.039 3.342,15.813 -0.516,2.202 -1.631,7.069 -6.013,9.42 -4.597,2.466 -9.571,0.442 -10.904,-0.1 -3.811,-1.55 -5.946,-4.314 -7.335,-6.114 -2.267,-2.934 -3.249,-5.711 -3.597,-6.774 -0.55,-1.684 -2.598,-8.081 0.401,-14.559 0.877,-1.897 2.53,-5.465 6.301,-6.749 3.267,-1.113 6.326,0.102 8.397,0.924 C -3.864,-5.937 -0.993,-1.545 0,0 m 0.177,-11.063 c -0.609,0.419 -2.538,-2.494 -6.879,-5.328 -1.666,-1.088 -5.97,-3.829 -12.003,-4.435 -2.105,-0.212 -5.753,-0.533 -9.902,1.157 -3.707,1.509 -5.851,3.816 -6.403,4.435 -0.371,0.417 -1.836,2.103 -3.001,4.917 -0.584,1.413 -1.809,4.842 -1.424,10.359 0.838,11.989 8.134,21.707 8.134,21.707 8.311,10.748 18.418,16.122 30.318,16.122 4.197,0 7.843,-0.89 10.94,-2.667 2.845,-1.634 4.507,-3.593 5.24,-4.471 1.764,-2.112 5.751,-7.819 5.509,-21.091 -0.054,-2.92 -0.434,-15.044 -7.559,-30.033 -6.705,-14.105 -15.418,-22.421 -17.365,-24.234 0,0 -13.053,-12.163 -28.491,-14.479 -4.959,-0.745 -7.097,0.7 -7.902,1.349 -1.717,1.387 -2.319,3.43 -2.5,4.147 -0.641,2.52 0.09,4.585 0.377,5.294 5.668,0.238 13.504,1.563 21.138,6.321 8.979,5.597 13.218,13.163 18.336,22.299 2.308,4.118 4.117,8.163 3.437,8.631" /></g><g
         transform="translate(82.9375,345.6138)"
         id="g4544"
         style="fill:#f9f9f9"><path
           inkscape:connector-curvature="0"
           id="path4546"
           style="fill:#f9f9f9;fill-opacity:1;fill-rule:nonzero;stroke:none"
           d="m 0,0 c 1.653,3.125 5.857,3.825 7.291,4.064 1.336,0.222 6.974,1.161 9.441,-2.032 0.329,-0.426 1.01,-1.452 1.084,-5.861 0.044,-2.588 -0.13,-5.813 -0.864,-9.496 0.012,-0.674 0.126,-1.488 0.625,-1.732 0.819,-0.401 2.269,0.938 3.964,2.662 2.622,2.67 3.934,4.006 5.679,6.331 3.042,4.055 7.375,7.304 11.078,8.938 0.804,0.354 10.511,4.494 15.277,0.193 0.991,-0.894 2.661,-2.959 2.031,-14.088 -0.302,-5.331 -0.926,-9.11 -3.247,-21.5 -1.45,-7.737 -2.495,-13.141 -2.96,-19.697 -0.335,-4.719 -0.503,-7.078 0,-9.74 0.707,-3.75 1.902,-5.384 0.96,-7.272 -1.284,-2.573 -5.232,-2.995 -7.011,-3.186 -1.071,-0.114 -7.918,-0.79 -11.75,3.47 -1.457,1.62 -2.507,4.099 -1.616,13.885 0.466,5.125 0.993,10.57 3.207,18.589 2.573,9.31 3.232,13.522 4.551,21.946 0.174,1.107 0.535,3.584 -0.643,4.361 -1.269,0.837 -3.667,-0.728 -4.664,-1.392 C 24.705,-16.708 18.451,-29.21 18.083,-29.96 11.337,-43.678 8.4,-53.898 7.664,-56.528 c -1.428,-5.103 -2.352,-9.443 -2.94,-12.555 -0.778,-0.752 -2.102,-1.849 -4.007,-2.625 -1.168,-0.477 -4.29,-1.75 -7.768,-0.478 -0.616,0.225 -3.433,1.254 -4.781,3.943 -1.217,2.43 -0.541,4.826 0.478,8.606 1.233,4.571 2.216,9.212 3.586,13.744 0.953,3.153 2.269,7.801 3.585,13.624 3.695,16.554 4.182,24.199 3.622,27.868 C -0.649,-3.82 -0.988,-1.868 0,0" /></g><g
         transform="translate(171.1836,283.8213)"
         id="g4548"
         style="fill:#f9f9f9"><path
           inkscape:connector-curvature="0"
           id="path4550"
           style="fill:#f9f9f9;fill-opacity:1;fill-rule:nonzero;stroke:none"
           d="m 0,0 c 6.092,0.002 11.389,2.409 15.675,9.376 2.455,3.993 5.265,16.069 5.848,22.152 0.52,5.435 0.193,14.444 -0.829,18.361 -0.785,3.007 -3.635,7.148 -8.174,7.581 C 6.985,57.999 2.33,50.579 0.56,48.162 -2.724,43.678 -7.405,31.05 -7.973,23.947 -8.59,16.236 -8.433,9.77 -7.031,6.409 -5.862,3.607 -3.312,-0.001 0,0 m -4.321,-10.783 c -6.973,0.671 -13.837,3.289 -17.459,9.073 -3.622,5.784 -5.183,14.149 -4.316,23.175 1.259,13.087 6.579,24.524 15.024,34.204 8.438,9.63 19.006,13.55 29.137,12.576 7.081,-0.681 13.056,-3.519 16.7,-9.258 3.646,-5.738 5.488,-13.609 4.616,-22.681 C 38.132,23.313 33.468,11.238 25.016,1.466 16.57,-8.214 5.954,-11.771 -4.321,-10.783" /></g><g
         transform="translate(229.4624,331.019)"
         id="g4552"
         style="fill:#f9f9f9"><path
           inkscape:connector-curvature="0"
           id="path4554"
           style="fill:#f9f9f9;fill-opacity:1;fill-rule:nonzero;stroke:none"
           d="m 0,0 c -6.341,-0.028 -12.682,-0.056 -19.023,-0.084 -0.137,0.396 -1.214,3.659 0.426,6.006 0.529,0.756 1.25,1.288 1.318,1.338 1.208,0.88 2.452,1.054 3.047,1.13 4.714,0.606 7.14,0.504 7.14,0.504 2.185,-0.092 5.288,-0.101 9.19,0.291 0.477,2.632 1.572,8.658 1.942,10.69 1.048,5.761 1.164,6.38 1.223,7.75 0.249,5.687 -1.222,7.341 0.114,8.844 0.674,0.758 1.392,0.753 10.206,0.438 3.734,-0.133 5.621,-0.222 6.574,-1.345 0.862,-1.016 0.905,-2.358 0.567,-5.216 -0.669,-5.652 -1.983,-9.964 -2.592,-12.193 -0.643,-2.349 -1.442,-5.716 -2.02,-9.918 1.268,0.339 3.213,0.767 5.616,0.914 2.857,0.176 4.557,-0.157 7.518,-0.354 1.972,-0.13 4.829,-0.223 8.361,0.015 C 39.78,7.938 40.038,5.973 39.069,3.964 37.913,1.57 35.715,0.57 34.493,0.034 31.465,-1.291 29.489,-0.691 23.833,-0.827 20.996,-0.895 18.62,-1.115 16.895,-1.319 c -1.549,-12.772 -2.922,-22.699 -4.32,-30.921 -0.359,-2.112 -1.037,-5.976 1.151,-8.489 2.459,-2.823 8.259,-3.619 12.375,-1.727 2.539,1.168 4.272,3.285 5.454,2.601 0.638,-0.369 0.718,-1.328 0.796,-2.287 0.217,-2.712 -0.693,-5.015 -1.524,-6.576 -2.102,-3.947 -5.243,-6.047 -6.036,-6.555 -5.071,-3.247 -10.32,-2.935 -12.139,-2.802 -1.043,0.076 -9.837,0.848 -14.731,7.285 -2.828,3.721 -3.301,7.949 -1.191,26.611 C -2.553,-17.844 -1.513,-9.622 0,0" /></g><g
         transform="translate(319.1016,332.6587)"
         id="g4556"
         style="fill:#f9f9f9"><path
           inkscape:connector-curvature="0"
           id="path4558"
           style="fill:#f9f9f9;fill-opacity:1;fill-rule:nonzero;stroke:none"
           d="M 0,0 C -1.032,2.699 -4.835,5.97 -9.142,6.365 -15.86,6.98 -20.367,-0.234 -23.15,-4.104 c -1.065,-1.481 -5.976,-8.502 -8.409,-20.233 -1.279,-6.176 -1.985,-15.667 1.065,-17.856 2.29,-1.643 5.796,-0.691 7.023,0.003 1.444,0.818 7.292,3.9 12.888,13.127 4.026,6.639 6.484,13.375 7.605,15.924 C -1.161,-9.01 0.383,-2.465 0,0 m -33.552,-59.779 c -3.605,0.038 -6.304,1.408 -6.305,1.408 -2.022,1.028 -3.743,2.616 -5.164,4.767 -2.72,4.117 -4.08,9.929 -4.08,17.435 0,6.642 1.182,13.477 3.546,20.506 2.365,7.028 5.577,13.294 9.638,18.8 7.252,9.69 16.001,14.535 26.249,14.535 2.877,0 5.024,-0.419 7.254,-0.852 2.211,-0.429 5.236,-1.159 8.741,-2.47 0.474,0.666 1.443,1.819 3.065,2.534 1.732,0.763 3.287,0.619 4.653,0.493 1.939,-0.179 3.394,-0.736 6.225,-1.844 1.283,-0.502 2.321,-0.961 3.016,-1.281 C 22.644,12.337 21.762,9.607 20.808,6.306 19.196,0.727 16.384,-8.537 15.037,-20.819 13.076,-38.702 14.5,-45.45 15.178,-48.217 c 0.655,-2.682 1.4,-4.856 1.953,-6.333 -1.536,-0.857 -3.878,-1.946 -6.9,-2.559 -3.135,-0.636 -7.396,-1.5 -10.396,0.809 -1.607,1.237 -2.213,2.893 -3.011,5.076 -0.222,0.606 -0.819,2.341 -1.183,7.548 -0.121,1.726 -0.237,4.126 -0.207,7.018 -11.914,-14.551 -23.475,-23.18 -28.986,-23.121" /></g><g
         transform="translate(485.708,332.6587)"
         id="g4560"
         style="fill:#f9f9f9"><path
           inkscape:connector-curvature="0"
           id="path4562"
           style="fill:#f9f9f9;fill-opacity:1;fill-rule:nonzero;stroke:none"
           d="m 0,0 c -1.031,2.699 -4.835,5.97 -9.142,6.365 -6.717,0.615 -11.224,-6.599 -14.008,-10.469 -1.065,-1.481 -5.976,-8.502 -8.409,-20.233 -1.279,-6.176 -1.985,-15.667 1.065,-17.856 2.29,-1.643 5.797,-0.691 7.023,0.003 1.444,0.818 7.292,3.9 12.888,13.127 4.026,6.639 6.484,13.375 7.605,15.924 C -1.16,-9.01 0.384,-2.465 0,0 m -33.552,-59.779 c -3.604,0.038 -6.304,1.408 -6.304,1.408 -2.023,1.028 -3.744,2.616 -5.165,4.767 -2.72,4.117 -4.08,9.929 -4.08,17.435 0,6.642 1.182,13.477 3.546,20.506 2.365,7.028 5.577,13.294 9.639,18.8 7.252,9.69 16,14.535 26.248,14.535 2.877,0 5.024,-0.419 7.254,-0.852 2.211,-0.429 5.236,-1.159 8.741,-2.47 0.474,0.666 1.443,1.819 3.066,2.534 1.731,0.763 3.287,0.619 4.653,0.493 1.938,-0.179 3.393,-0.736 6.225,-1.844 1.283,-0.502 2.321,-0.961 3.015,-1.281 -0.641,-1.915 -1.524,-4.645 -2.478,-7.946 -1.612,-5.579 -4.424,-14.843 -5.771,-27.125 -1.961,-17.883 -0.536,-24.631 0.141,-27.398 0.656,-2.682 1.4,-4.856 1.954,-6.333 -1.537,-0.857 -3.878,-1.946 -6.901,-2.559 -3.134,-0.636 -7.396,-1.5 -10.395,0.809 -1.607,1.237 -2.214,2.893 -3.012,5.076 -0.221,0.606 -0.818,2.341 -1.183,7.548 -0.12,1.726 -0.237,4.126 -0.206,7.018 -11.914,-14.551 -23.475,-23.18 -28.987,-23.121" /></g><g
         transform="translate(358.3428,347.1118)"
         id="g4564"
         style="fill:#f9f9f9"><path
           inkscape:connector-curvature="0"
           id="path4566"
           style="fill:#f9f9f9;fill-opacity:1;fill-rule:nonzero;stroke:none"
           d="m 0,0 c 1.458,0.359 2.917,0.719 4.375,1.079 0.766,0.27 4.553,1.52 8.431,-0.385 0.873,-0.428 2.872,-1.34 3.881,-3.39 0.739,-1.504 0.547,-2.794 -0.547,-9.377 -0.778,-4.676 -0.976,-5.797 -0.479,-6.065 0.487,-0.262 1.333,0.459 5.972,5.197 3.104,3.169 4.178,4.329 6.2,6.262 1.986,1.899 2.979,2.849 4.353,3.888 2.797,2.115 4.667,3.53 7.437,3.92 1.067,0.15 4.342,0.611 6.787,-1.529 1.707,-1.493 2.127,-3.475 2.242,-4.081 0.209,-1.094 0.369,-3.206 -2.242,-8.006 -1.916,-3.522 -5.296,-9.736 -8.695,-9.297 -1.431,0.184 -1.624,1.388 -3.692,1.866 -2.277,0.526 -4.309,-0.408 -5.31,-0.868 -5.648,-2.595 -10.048,-10.141 -10.797,-11.45 -3.347,-5.851 -6.459,-11.293 -8.85,-19.853 -1.335,-4.781 -2.735,-11.572 -2.854,-19.89 -1.89,-1.063 -5.146,-2.478 -9.167,-2.224 -1.838,0.117 -4.21,0.266 -5.714,1.901 -1.621,1.76 -1.359,4.297 -0.907,7.696 0.518,3.897 1.284,8.906 2.438,14.789 1.369,6.803 2.737,13.605 4.105,20.408 1.228,7.517 2.176,15.469 2.727,23.826 C -0.182,-3.702 -0.08,-1.84 0,0" /></g><g
         transform="translate(414.9561,348.2441)"
         id="g4568"
         style="fill:#f9f9f9"><path
           inkscape:connector-curvature="0"
           id="path4570"
           style="fill:#f9f9f9;fill-opacity:1;fill-rule:nonzero;stroke:none"
           d="m 0,0 c 1.915,2.216 5.727,1.78 10.837,1.195 4.409,-0.505 5.648,-1.474 6.284,-2.295 1.103,-1.422 1.162,-3.123 1.159,-3.967 -0.025,-8.243 -4.384,-24.469 -5.803,-30.239 -1.272,-5.165 -2.246,-9.209 -2.629,-14.823 -0.471,-6.891 -0.706,-10.336 0.256,-14.042 1.001,-3.856 2.684,-6.886 1.186,-8.699 -0.555,-0.671 -1.712,-0.974 -4.025,-1.579 -2.319,-0.607 -3.787,-0.99 -5.705,-0.904 -1,0.045 -4.41,0.114 -6.616,2.227 -2.463,2.358 -2.718,5.902 -2.753,8.395 -0.133,9.635 1.583,17.662 2.623,23.434 1.536,8.532 2.82,16.582 3.205,20.293 0.362,3.505 0.907,8.618 1.087,14.835 C -0.812,-3.337 -1.28,-1.482 0,0" /></g><g
         transform="translate(416.4365,360.5898)"
         id="g4572"
         style="fill:#f9f9f9"><path
           inkscape:connector-curvature="0"
           id="path4574"
           style="fill:#f9f9f9;fill-opacity:1;fill-rule:nonzero;stroke:none"
           d="m 0,0 c 0,0 14.759,14.759 19.469,15.387 0,0 9.734,0.942 13.188,0 C 36.111,14.444 2.512,-5.024 0,0" /></g></g></g></svg>