<?xml version="1.0" encoding="UTF-8" standalone="no"?>
<!-- Created with Inkscape (http://www.inkscape.org/) -->

<svg
   xmlns:dc="http://purl.org/dc/elements/1.1/"
   xmlns:cc="http://creativecommons.org/ns#"
   xmlns:rdf="http://www.w3.org/1999/02/22-rdf-syntax-ns#"
   xmlns:svg="http://www.w3.org/2000/svg"
   xmlns="http://www.w3.org/2000/svg"
   xmlns:sodipodi="http://sodipodi.sourceforge.net/DTD/sodipodi-0.dtd"
   xmlns:inkscape="http://www.inkscape.org/namespaces/inkscape"
   width="11.295238mm"
   height="28.934128mm"
   viewBox="0 0 11.295239 28.934127"
   version="1.1"
   id="svg14964"
   inkscape:version="0.92.4 (5da689c313, 2019-01-14)"
   sodipodi:docname="profesionalismo.svg">
  <defs
     id="defs14958">
    <clipPath
       clipPathUnits="userSpaceOnUse"
       id="clipPath13796">
      <path
         d="M 0,4585 H 1144 V 0 H 0 Z"
         id="path13794"
         inkscape:connector-curvature="0" />
    </clipPath>
    <clipPath
       clipPathUnits="userSpaceOnUse"
       id="clipPath13702">
      <path
         d="M 0,4585 H 1144 V 0 H 0 Z"
         id="path13700"
         inkscape:connector-curvature="0" />
    </clipPath>
  </defs>
  <sodipodi:namedview
     id="base"
     pagecolor="#ffffff"
     bordercolor="#666666"
     borderopacity="1.0"
     inkscape:pageopacity="0.0"
     inkscape:pageshadow="2"
     inkscape:zoom="0.35"
     inkscape:cx="-1121.8739"
     inkscape:cy="159.7055"
     inkscape:document-units="mm"
     inkscape:current-layer="layer1"
     showgrid="false"
     fit-margin-top="0"
     fit-margin-left="0"
     fit-margin-right="0"
     fit-margin-bottom="0"
     inkscape:window-width="1920"
     inkscape:window-height="1017"
     inkscape:window-x="-8"
     inkscape:window-y="-8"
     inkscape:window-maximized="1" />
  <metadata
     id="metadata14961">
    <rdf:RDF>
      <cc:Work
         rdf:about="">
        <dc:format>image/svg+xml</dc:format>
        <dc:type
           rdf:resource="http://purl.org/dc/dcmitype/StillImage" />
        <dc:title></dc:title>
      </cc:Work>
    </rdf:RDF>
  </metadata>
  <g
     inkscape:label="Capa 1"
     inkscape:groupmode="layer"
     id="layer1"
     transform="translate(-263.18925,-162.15462)">
    <g
       transform="matrix(0.35277777,0,0,-0.35277777,57.94981,1465.612)"
       id="g13696">
      <g
         id="g13698"
         clip-path="url(#clipPath13702)">
        <g
           id="g13704"
           transform="translate(587.7471,3690.7529)">
          <path
             d="m 0,0 c 0.881,-2.27 1.694,-4.437 2.585,-6.573 0.123,-0.294 0.63,-0.603 0.961,-0.606 4.418,-0.041 8.837,-0.037 13.256,-0.008 0.311,0.002 0.812,0.213 0.901,0.449 0.828,2.208 1.585,4.441 2.387,6.738 z m 10.081,-71.011 c 3.088,4.213 6.074,8.269 9.023,12.353 0.224,0.309 0.269,0.818 0.245,1.225 -0.745,12.641 -1.505,25.282 -2.271,37.921 -0.166,2.742 -0.359,5.484 -0.54,8.227 H 3.821 c -0.27,-4.04 -0.539,-7.999 -0.8,-11.959 -0.751,-11.327 -1.505,-22.655 -2.228,-33.985 -0.031,-0.487 0.103,-1.087 0.381,-1.477 2.902,-4.065 5.85,-8.096 8.907,-12.305 m -0.068,-6.92 c -3.762,5.396 -7.386,10.792 -11.238,16.021 -1.608,2.181 -2.296,4.287 -2.077,7.044 0.887,11.17 1.539,22.359 2.278,33.541 0.216,3.292 0.474,6.582 0.621,9.877 0.035,0.787 -0.2,1.63 -0.484,2.381 -1.644,4.345 -3.342,8.671 -5.079,13.154 H 26.052 C 24.975,1.26 24.11,-1.582 22.835,-4.226 c -2.071,-4.292 -2.4,-8.667 -2.047,-13.38 1.004,-13.351 1.655,-26.729 2.416,-40.097 0.033,-0.586 -0.065,-1.302 -0.382,-1.768 -4.06,-5.978 -8.172,-11.924 -12.274,-17.874 -0.132,-0.191 -0.315,-0.347 -0.535,-0.586"
             style="fill:#77c5e8;fill-opacity:1;fill-rule:nonzero;stroke:none"
             id="path13706"
             inkscape:connector-curvature="0" />
        </g>
      </g>
    </g>
  </g>
</svg>
