<?xml version="1.0" encoding="UTF-8" standalone="no"?>
<!-- Created with Inkscape (http://www.inkscape.org/) -->

<svg
   xmlns:dc="http://purl.org/dc/elements/1.1/"
   xmlns:cc="http://creativecommons.org/ns#"
   xmlns:rdf="http://www.w3.org/1999/02/22-rdf-syntax-ns#"
   xmlns:svg="http://www.w3.org/2000/svg"
   xmlns="http://www.w3.org/2000/svg"
   xmlns:sodipodi="http://sodipodi.sourceforge.net/DTD/sodipodi-0.dtd"
   xmlns:inkscape="http://www.inkscape.org/namespaces/inkscape"
   width="41.700714mm"
   height="33.23307mm"
   viewBox="0 0 41.700714 33.23307"
   version="1.1"
   id="svg1170"
   inkscape:version="0.92.4 (5da689c313, 2019-01-14)"
   sodipodi:docname="profesionalismo.svg">
  <defs
     id="defs1164" />
  <sodipodi:namedview
     id="base"
     pagecolor="#ffffff"
     bordercolor="#666666"
     borderopacity="1.0"
     inkscape:pageopacity="0.0"
     inkscape:pageshadow="2"
     inkscape:zoom="1.979899"
     inkscape:cx="158.79443"
     inkscape:cy="46.745599"
     inkscape:document-units="mm"
     inkscape:current-layer="layer1"
     showgrid="false"
     inkscape:window-width="1920"
     inkscape:window-height="1017"
     inkscape:window-x="-8"
     inkscape:window-y="-8"
     inkscape:window-maximized="1" />
  <metadata
     id="metadata1167">
    <rdf:RDF>
      <cc:Work
         rdf:about="">
        <dc:format>image/svg+xml</dc:format>
        <dc:type
           rdf:resource="http://purl.org/dc/dcmitype/StillImage" />
        <dc:title></dc:title>
      </cc:Work>
    </rdf:RDF>
  </metadata>
  <g
     inkscape:label="Capa 1"
     inkscape:groupmode="layer"
     id="layer1"
     transform="translate(177.3325,-120.12156)">
    <g
       id="g20"
       transform="matrix(0.35277777,0,0,-0.35277777,-145.3486,139.32775)"
       style="fill:#77c5e8;fill-opacity:1">
      <path
         d="m 0,0 c -0.108,-0.068 -0.216,-0.136 -0.324,-0.205 0,-1.418 -0.019,-2.836 0.021,-4.253 0.006,-0.204 0.301,-0.399 0.461,-0.598 0.159,0.205 0.446,0.406 0.454,0.616 0.044,1.232 0.058,2.467 -0.006,3.696 C 0.594,-0.486 0.212,-0.248 0,0 m -62.834,-0.231 c -0.105,0.086 -0.21,0.172 -0.315,0.259 -0.225,-0.202 -0.636,-0.396 -0.645,-0.609 -0.06,-1.312 -0.048,-2.629 -0.011,-3.944 0.005,-0.181 0.278,-0.355 0.427,-0.532 0.182,0.184 0.514,0.363 0.52,0.553 0.044,1.423 0.024,2.848 0.024,4.273 M 0.044,7.917 C -0.079,7.823 -0.202,7.73 -0.326,7.637 -0.326,6.291 -0.311,4.944 -0.332,3.598 -0.344,2.832 -0.01,2.769 0.636,3.071 0.636,4.427 0.668,5.775 0.609,7.118 0.597,7.392 0.241,7.651 0.044,7.917 M -63.828,3.043 c 0.106,-0.087 0.214,-0.174 0.32,-0.261 0.225,0.204 0.634,0.402 0.643,0.614 0.056,1.456 0.03,2.914 0.03,4.372 -0.13,0.059 -0.259,0.118 -0.389,0.177 -0.201,-0.246 -0.566,-0.486 -0.577,-0.74 -0.057,-1.385 -0.027,-2.774 -0.027,-4.162 m 48.267,43.547 c -0.523,2.841 -2.949,4.817 -5.94,4.913 -1.431,0.046 -2.863,0.013 -4.296,0.013 -5.185,0 -10.371,-0.009 -15.557,0.003 -2.97,0.006 -5.912,-1.951 -6.29,-4.929 z M -3.296,-0.18 h -56.577 v -7.744 h -6.995 v 7.83 c -4.274,0 -8.416,0.002 -12.56,-0.001 -1.842,-0.001 -3.645,0.21 -5.272,1.141 -0.99,0.566 -1.924,1.232 -2.958,1.902 -0.015,-0.221 -0.038,-0.399 -0.038,-0.577 -0.001,-10.229 -0.009,-20.457 0.013,-30.686 0.002,-0.803 0.11,-1.634 0.338,-2.401 1.147,-3.847 4.254,-6.06 8.491,-6.061 31.501,-0.006 63.001,-0.007 94.502,0 5.45,10e-4 8.849,3.413 8.854,8.863 0.008,9.958 0.003,19.916 -10e-4,29.873 0,0.323 -0.04,0.646 -0.079,1.236 -2.879,-3.094 -6.41,-3.4 -10.103,-3.305 -3.135,0.08 -6.276,0.018 -9.414,0.014 C 4.529,-0.097 4.153,-0.13 3.638,-0.155 v -7.778 h -6.934 z m -56.566,3.156 h 56.549 v 7.672 H 3.704 V 2.956 c 4.859,0 9.582,-0.002 14.306,0.006 0.224,10e-4 0.452,0.09 0.675,0.152 3.627,1.016 5.801,3.912 5.812,7.858 0.022,8.058 0.014,16.117 -0.006,24.176 -0.002,0.807 -0.072,1.639 -0.279,2.415 -1.005,3.771 -4.153,6.047 -8.329,6.046 -23.208,-0.004 -46.416,-0.014 -69.624,-0.024 -8.407,-0.003 -16.816,0.01 -25.223,-0.019 -5.173,-0.018 -8.685,-3.427 -8.72,-8.545 -0.052,-8.02 -0.031,-16.04 -0.006,-24.06 0.014,-4.657 3.491,-8.211 8.165,-8.087 3.872,0.103 7.749,0.019 11.623,0.024 0.334,0 0.668,0.044 1.126,0.077 v 7.684 h 6.914 z m 28.31,-42.71 c -15.649,0 -31.3,-0.037 -46.949,0.047 -1.926,0.011 -4.016,0.305 -5.738,1.1 -4.297,1.981 -6.391,5.622 -6.398,10.331 -0.031,21.228 -0.04,42.457 0.005,63.685 0.013,5.483 3.025,9.358 8.18,10.755 1.099,0.297 2.296,0.324 3.448,0.328 9.026,0.025 18.052,0.014 27.078,0.012 0.581,0 1.064,-0.065 1.302,0.751 1.288,4.398 4.225,6.957 8.817,7.069 7.082,0.171 14.174,0.101 21.258,-0.066 3.685,-0.088 7.02,-3.068 7.888,-6.667 0.223,-0.927 0.643,-1.106 1.508,-1.104 9.025,0.03 18.051,0.002 27.077,0.029 2.589,0.007 5.004,-0.504 7.11,-2.061 3.017,-2.232 4.475,-5.317 4.481,-9.005 0.035,-21.228 0.04,-42.456 0.004,-63.684 -0.012,-6.388 -4.651,-11.588 -12.004,-11.547 -15.689,0.088 -31.377,0.027 -47.067,0.027"
         style="fill:#77c5e8;fill-opacity:1;fill-rule:nonzero;stroke:none"
         id="path22"
         inkscape:connector-curvature="0" />
    </g>
  </g>
</svg>
